<svg width="55" height="90" viewBox="0 0 55 90" fill="none" xmlns="http://www.w3.org/2000/svg">
<rect x="0.5" y="0.5" width="54" height="89" rx="9.5" stroke="black" stroke-linejoin="round"/>
<path d="M13.0286 18.9414C13.074 18.6358 13.3023 18.4165 13.5386 18.4516L17.3886 19.0235C17.6248 19.0586 17.7796 19.3348 17.7342 19.6404C17.6888 19.946 17.4604 20.1653 17.2242 20.1302L13.802 19.6219L13.1444 24.0488C13.099 24.3544 12.8706 24.5737 12.6344 24.5386C12.3981 24.5035 12.2434 24.2273 12.2888 23.9217L13.0286 18.9414ZM42.3342 71.5462L13.0958 19.3513L13.817 18.6586L43.0554 70.8535L42.3342 71.5462Z" fill="black"/>
<path d="M44.2633 31.7422L32.6768 31.7422L23.9736 34.9225L17.4528 47.0933L17.4528 61.3815" stroke="black"/>
<line y1="-0.5" x2="40.7083" y2="-0.5" transform="matrix(-0.646548 0.762873 0.566901 0.823786 44.2725 32.2025)" stroke="black"/>
</svg>
