<svg width="55" height="90" viewBox="0 0 55 90" fill="none" xmlns="http://www.w3.org/2000/svg">
<rect x="0.5" y="0.5" width="54" height="89" rx="9.5" stroke="black" stroke-linejoin="round"/>
<path d="M42.5236 18.9414C42.4782 18.6358 42.2499 18.4165 42.0137 18.4516L38.1637 19.0235C37.9274 19.0586 37.7727 19.3348 37.8181 19.6404C37.8635 19.946 38.0918 20.1653 38.3281 20.1302L41.7503 19.6219L42.4079 24.0488C42.4533 24.3544 42.6816 24.5737 42.9179 24.5386C43.1541 24.5035 43.3088 24.2273 43.2634 23.9217L42.5236 18.9414ZM13.218 71.5462L42.4565 19.3513L41.7353 18.6586L12.4968 70.8535L13.218 71.5462Z" fill="black"/>
<path d="M11.289 31.7422L22.8755 31.7422L31.5786 34.9225L38.0994 47.0933L38.0994 61.3815" stroke="black"/>
<line y1="-0.5" x2="40.7083" y2="-0.5" transform="matrix(0.646548 0.762873 -0.566901 0.823786 11.2798 32.2025)" stroke="black"/>
</svg>
