<svg width="55" height="90" viewBox="0 0 55 90" fill="none" xmlns="http://www.w3.org/2000/svg">
<rect x="0.5" y="0.5" width="54" height="89" rx="9.5" stroke="black" stroke-linejoin="round"/>
<path d="M27.8218 68.3105C27.8533 68.3317 27.8827 68.3511 27.9099 68.3688C28.0689 68.2019 28.2934 67.9669 28.5731 67.6759C29.1641 67.0611 30.0015 66.1962 30.9876 65.1954C32.9587 63.1951 35.5283 60.6476 37.9128 58.4695C38.4419 57.9863 39.0228 57.1437 39.6339 55.9908C40.2399 54.8476 40.8558 53.4374 41.4671 51.8535C42.6895 48.6862 43.8799 44.8589 44.9251 41.1565C45.9696 37.456 46.8664 33.8896 47.5022 31.2477C47.82 29.9269 48.0725 28.8377 48.2454 28.079C48.3074 27.8069 48.3592 27.5773 48.4002 27.3947L27.9979 23.5086L6.53353 27.4112C6.54557 27.5548 6.56103 27.7314 6.58036 27.9386C6.63899 28.5673 6.73314 29.4772 6.87496 30.5988C7.15868 32.8427 7.63277 35.9307 8.39401 39.3074C9.92305 46.0899 12.5873 53.9255 17.1052 58.4868C21.724 63.15 24.5239 65.6778 26.1628 67.0364C26.9821 67.7156 27.5075 68.0994 27.8218 68.3105Z" stroke="black"/>
</svg>
