<svg width="55" height="90" viewBox="0 0 55 90" fill="none" xmlns="http://www.w3.org/2000/svg">
<rect x="0.5" y="0.5" width="54" height="89" rx="9.5" stroke="black" stroke-linejoin="round"/>
<path d="M12 70.7786L27.408 43.8893L42.816 16.9999" stroke="black"/>
<line y1="-0.5" x2="19.6628" y2="-0.5" transform="matrix(-0.60278 -0.797907 0.551148 -0.834407 23.8525 67.4664)" stroke="black"/>
<path d="M27.8218 62.3105C27.8533 62.3317 27.8827 62.3511 27.9099 62.3688C28.0689 62.2019 28.2934 61.9669 28.5731 61.6759C29.1641 61.0611 30.0015 60.1962 30.9876 59.1954C32.9587 57.1951 35.5283 54.6476 37.9128 52.4695C38.4419 51.9863 39.0228 51.1437 39.6339 49.9908C40.2399 48.8476 40.8558 47.4374 41.4671 45.8535C42.6895 42.6862 43.8799 38.8589 44.9251 35.1565C45.9696 31.456 46.8664 27.8896 47.5022 25.2477C47.82 23.9269 48.0725 22.8377 48.2454 22.079C48.3074 21.8069 48.3592 21.5773 48.4002 21.3947L27.9979 17.5086L6.53353 21.4112C6.54557 21.5548 6.56103 21.7314 6.58036 21.9386C6.63899 22.5673 6.73314 23.4772 6.87496 24.5988C7.15868 26.8427 7.63277 29.9307 8.39401 33.3074C9.92305 40.0899 12.5873 47.9255 17.1052 52.4868C21.724 57.15 24.5239 59.6778 26.1628 61.0364C26.9821 61.7156 27.5075 62.0994 27.8218 62.3105Z" stroke="black"/>
</svg>
