<svg width="55" height="90" viewBox="0 0 55 90" fill="none" xmlns="http://www.w3.org/2000/svg">
<rect x="0.5" y="0.5" width="54" height="89" rx="9.5" stroke="black" stroke-linejoin="round"/>
<line y1="-0.5" x2="61.7869" y2="-0.5" transform="matrix(0.492364 -0.870389 0.717824 0.696225 11.3286 77.7869)" stroke="black"/>
<path d="M44.8036 16.0118L24.364 68.803L13.9093 59.2174L44.8036 16.0118Z" fill="black"/>
<path d="M29.8218 62.3105C29.8533 62.3317 29.8827 62.3511 29.9099 62.3688C30.0689 62.2019 30.2934 61.9669 30.5731 61.6759C31.1641 61.0611 32.0015 60.1962 32.9876 59.1954C34.9587 57.1951 37.5283 54.6476 39.9128 52.4695C40.4419 51.9863 41.0228 51.1437 41.6339 49.9908C42.2399 48.8476 42.8558 47.4374 43.4671 45.8535C44.6895 42.6862 45.8799 38.8589 46.9251 35.1565C47.9696 31.456 48.8664 27.8896 49.5022 25.2477C49.82 23.9269 50.0725 22.8377 50.2454 22.079C50.3074 21.8069 50.3592 21.5773 50.4002 21.3947L29.9979 17.5086L8.53353 21.4112C8.54557 21.5548 8.56103 21.7314 8.58036 21.9386C8.63899 22.5673 8.73314 23.4772 8.87496 24.5988C9.15868 26.8427 9.63277 29.9307 10.394 33.3074C11.9231 40.0899 14.5873 47.9255 19.1052 52.4868C23.724 57.15 26.5239 59.6778 28.1628 61.0364C28.9821 61.7156 29.5075 62.0994 29.8218 62.3105Z" stroke="black"/>
</svg>
