<svg width="55" height="90" viewBox="0 0 55 90" fill="none" xmlns="http://www.w3.org/2000/svg">
<rect x="0.5" y="0.5" width="54" height="89" rx="9.5" stroke="black" stroke-linejoin="round"/>
<path d="M27.6106 35.5099C32.5411 36.4793 39.6865 39.7112 44.2744 49.7487C44.2769 51.265 44.3308 52.7442 44.385 54.1654C44.3879 54.2402 44.3908 54.3149 44.3936 54.3894C44.4463 55.7668 44.4968 57.0861 44.4999 58.3447C44.5063 61.0055 44.2987 63.3306 43.489 65.2572C42.6903 67.158 41.2914 68.7033 38.8337 69.7852C36.3545 70.8767 32.7879 71.5 27.6659 71.5C22.6703 71.5 18.9034 69.1006 16.364 65.1791C13.831 61.2675 12.5194 55.8333 12.5002 49.775C16.2589 43.3459 18.3295 40.1574 20.3125 38.3756C22.2444 36.6397 24.0992 36.2317 27.6106 35.5099Z" stroke="black"/>
<path d="M24.5 35.5L16.178 24.4168L38.8218 24.4168L33.1609 31.2084L30 35.5" stroke="black"/>
<line x1="22" y1="35.5" x2="32" y2="35.5" stroke="black"/>
</svg>
