<svg width="44" height="45" viewBox="0 0 44 45" fill="none" xmlns="http://www.w3.org/2000/svg">
<path d="M42.1779 0.923632C42.1361 0.652131 41.8799 0.466225 41.6055 0.5084L37.1345 1.19569C36.8601 1.23786 36.6715 1.49215 36.7133 1.76365C36.755 2.03515 37.0113 2.22106 37.2856 2.17888L41.2599 1.56796L41.8644 5.50073C41.9061 5.77224 42.1624 5.95814 42.4368 5.91597C42.7111 5.87379 42.8997 5.61951 42.858 5.348L42.1779 0.923632ZM20.1991 30.8056L42.0858 1.29361L41.2764 0.706384L19.3897 30.2183L20.1991 30.8056Z" fill="black"/>
<path d="M18.6202 8.2019L27.2933 8.2019L33.8081 10.0001L38.6893 16.8817L38.6893 24.9605" stroke="black"/>
<line y1="-0.5" x2="26.3911" y2="-0.5" transform="matrix(0.746535 0.665346 -0.67347 0.739214 18.6133 8.46216)" stroke="black"/>
<path d="M23.5 9.5C23.5 11.6419 22.2751 13.6299 20.1963 15.1024C18.1187 16.574 15.2224 17.5 12 17.5C8.77757 17.5 5.88133 16.574 3.80373 15.1024C1.72492 13.6299 0.5 11.6419 0.5 9.5C0.5 7.35805 1.72492 5.3701 3.80373 3.8976C5.88133 2.42597 8.77757 1.5 12 1.5C15.2224 1.5 18.1187 2.42597 20.1963 3.8976C22.2751 5.3701 23.5 7.35805 23.5 9.5Z" stroke="black"/>
<rect x="4.5" y="18.5" width="13" height="26" stroke="black"/>
</svg>
