<svg width="44" height="45" viewBox="0 0 44 45" fill="#FF6666" xmlns="http://www.w3.org/2000/svg">
<path d="M1.82214 0.923632C1.86388 0.652131 2.12013 0.466225 2.39449 0.5084L6.86551 1.19569C7.13987 1.23786 7.32846 1.49215 7.28672 1.76365C7.24498 2.03515 6.98874 2.22106 6.71437 2.17888L2.74013 1.56796L2.13559 5.50073C2.09385 5.77224 1.8376 5.95814 1.56324 5.91597C1.28887 5.87379 1.10029 5.61951 1.14203 5.348L1.82214 0.923632ZM23.8009 30.8056L1.91421 1.29361L2.72363 0.706384L24.6103 30.2183L23.8009 30.8056Z" fill="#FF6666"/>
<path d="M25.3798 8.2019L16.7067 8.2019L10.1919 10.0001L5.31067 16.8817L5.31067 24.9605" stroke="black"/>
<line y1="-0.5" x2="26.3911" y2="-0.5" transform="matrix(-0.746535 0.665346 0.67347 0.739214 25.3867 8.46216)" stroke="black"/>
<path d="M20.5 9.5C20.5 11.6419 21.7249 13.6299 23.8037 15.1024C25.8813 16.574 28.7776 17.5 32 17.5C35.2224 17.5 38.1187 16.574 40.1963 15.1024C42.2751 13.6299 43.5 11.6419 43.5 9.5C43.5 7.35805 42.2751 5.3701 40.1963 3.8976C38.1187 2.42597 35.2224 1.5 32 1.5C28.7776 1.5 25.8813 2.42597 23.8037 3.8976C21.7249 5.3701 20.5 7.35805 20.5 9.5Z" stroke="black"/>
<rect x="-0.5" y="0.5" width="13" height="26" transform="matrix(-1 0 0 1 39 18)" stroke="black"/>
</svg>
