<svg width="46" height="44" viewBox="0 0 46 44" fill="none" xmlns="http://www.w3.org/2000/svg">
<line y1="-0.5" x2="34.1817" y2="-0.5" transform="matrix(0.380157 -0.924922 0.607632 0.794219 29.4165 35.4414)" stroke="black"/>
<path d="M40.3482 11H45L40.3482 26L39 13.752" stroke="black"/>
<line y1="-0.5" x2="34.1817" y2="-0.5" transform="matrix(-0.380157 -0.924922 -0.607632 0.794219 16.5835 35.4414)" stroke="black"/>
<path d="M5.65184 11H1L5.65184 26L7 13.752" stroke="black"/>
<path d="M31.5 8.5C31.5 12.806 26.9265 16.5 21 16.5C15.0735 16.5 10.5 12.806 10.5 8.5C10.5 4.19396 15.0735 0.5 21 0.5C26.9265 0.5 31.5 4.19396 31.5 8.5Z" stroke="black"/>
<rect x="17.5" y="19.5" width="11" height="24" stroke="black"/>
</svg>
