<svg width="44" height="44" viewBox="0 0 44 44" fill="none" xmlns="http://www.w3.org/2000/svg">
<rect x="0.5" y="0.5" width="43" height="30" stroke="black"/>
<rect x="0.5" y="7.5" width="43" height="14" stroke="black"/>
<line x1="21.5" y1="7" x2="21.5" y2="36" stroke="black" stroke-width="5"/>
<path d="M32.5 40C32.5 40.3517 32.3055 40.7515 31.8096 41.1778C31.3153 41.6028 30.5708 42.0082 29.6073 42.3585C27.6845 43.0577 24.9949 43.5 22 43.5C19.0051 43.5 16.3155 43.0577 14.3927 42.3585C13.4292 42.0082 12.6847 41.6028 12.1904 41.1778C11.6945 40.7515 11.5 40.3517 11.5 40C11.5 39.6483 11.6945 39.2485 12.1904 38.8222C12.6847 38.3972 13.4292 37.9918 14.3927 37.6415C16.3155 36.9423 19.0051 36.5 22 36.5C24.9949 36.5 27.6845 36.9423 29.6073 37.6415C30.5708 37.9918 31.3153 38.3972 31.8096 38.8222C32.3055 39.2485 32.5 39.6483 32.5 40Z" stroke="black"/>
</svg>
