<svg width="44" height="44" viewBox="0 0 44 44" fill="#FF6666" xmlns="http://www.w3.org/2000/svg">
<path d="M30.5 8.5C30.5 10.5798 28.9561 12.5714 26.2197 14.072C23.5017 15.5626 19.7126 16.5 15.5 16.5C11.2874 16.5 7.49833 15.5626 4.78026 14.072C2.04387 12.5714 0.5 10.5798 0.5 8.5C0.5 6.42016 2.04387 4.4286 4.78026 2.928C7.49833 1.43744 11.2874 0.5 15.5 0.5C19.7126 0.5 23.5017 1.43744 26.2197 2.928C28.9561 4.4286 30.5 6.42016 30.5 8.5Z" stroke="black"/>
<rect x="5.5" y="17.5" width="17" height="26" stroke="black"/>
<path d="M43.3777 17.0692C43.395 16.9749 43.4106 16.889 43.4245 16.8121L33.7416 14.5133L23.5266 16.8281C23.5303 16.88 23.5344 16.9364 23.5389 16.9971C23.5675 17.3788 23.6134 17.9316 23.6825 18.6131C23.8208 19.9767 24.052 21.8529 24.423 23.9042C25.1706 28.0378 26.4681 32.769 28.6414 35.5038C30.895 38.3395 32.2573 39.8719 33.0504 40.6914C33.3137 40.9634 33.5125 41.155 33.6587 41.2886C33.7031 41.2309 33.7516 41.1678 33.8042 41.0996C34.0932 40.7248 34.5027 40.1977 34.985 39.5877C35.9484 38.369 37.206 36.8149 38.3743 35.4849C38.6092 35.2175 38.8836 34.7287 39.1815 34.0282C39.4745 33.3393 39.7735 32.4864 40.0713 31.5247C40.6667 29.602 41.2472 27.2763 41.7573 25.024C42.267 22.7734 42.7046 20.604 43.015 18.9968C43.1701 18.1933 43.2933 17.5307 43.3777 17.0692Z" stroke="black"/>
</svg>
