<svg width="45" height="45" viewBox="0 0 45 45" fill="none" xmlns="http://www.w3.org/2000/svg">
<path d="M30.6089 34.7786L37.3045 17.8893L44.0002 0.999949" stroke="black"/>
<line y1="-0.5" x2="11.1192" y2="-0.5" transform="matrix(-0.463208 -0.886249 0.415643 -0.909528 35.7598 32.6982)" stroke="black"/>
<path d="M34.5 9.5C34.5 11.6514 33.3213 13.6398 31.3345 15.1083C29.3479 16.5767 26.5796 17.5 23.5 17.5C20.4204 17.5 17.6521 16.5767 15.6655 15.1083C13.6787 13.6398 12.5 11.6514 12.5 9.5C12.5 7.34862 13.6787 5.36016 15.6655 3.89168C17.6521 2.42329 20.4204 1.5 23.5 1.5C26.5796 1.5 29.3479 2.42329 31.3345 3.89168C33.3213 5.36016 34.5 7.34862 34.5 9.5Z" stroke="black"/>
<rect x="16.5" y="18.5" width="13" height="26" stroke="black"/>
<path d="M15.4071 15.6277C15.4172 15.5653 15.4266 15.5072 15.4353 15.4537L8.18311 13.5167L0.523181 15.4696C0.525179 15.5006 0.527318 15.5334 0.529603 15.5677C0.551357 15.8948 0.586307 16.3684 0.638968 16.9524C0.744336 18.1209 0.920386 19.7286 1.20296 21.4862C1.77311 25.0324 2.76133 29.0784 4.40838 31.41C6.12472 33.8397 7.16099 35.1508 7.76275 35.8503C7.8982 36.0077 8.01083 36.1332 8.1035 36.2328C8.10927 36.2244 8.11512 36.2159 8.12103 36.2073C8.34137 35.8858 8.65354 35.4337 9.02114 34.9106C9.75546 33.8657 10.7145 32.5324 11.6059 31.3907C11.7777 31.1707 11.9844 30.7591 12.2116 30.158C12.4343 29.569 12.6618 28.8391 12.8886 28.0152C13.3419 26.3682 13.784 24.3755 14.1726 22.4452C14.5609 20.5164 14.8943 18.6571 15.1308 17.2796C15.2489 16.591 15.3428 16.0232 15.4071 15.6277Z" stroke="black"/>
</svg>
