<svg width="44" height="44" viewBox="0 0 44 44" fill="#FF6666" xmlns="http://www.w3.org/2000/svg">
<line y1="-0.5" x2="29.9402" y2="-0.5" transform="matrix(0.297423 -0.939165 0.826537 0.595723 24.2324 37.278)" stroke="black"/>
<path d="M38.2104 16.7521L39.5174 11.7649L37.538 8.45693L35.0592 6.88128L32.8608 8.94409" stroke="black"/>
<path d="M27.5 8.5C27.5 10.6055 26.0921 12.5942 23.64 14.083C21.1969 15.5663 17.7899 16.5 14 16.5C10.2101 16.5 6.80306 15.5663 4.35999 14.083C1.90787 12.5942 0.5 10.6055 0.5 8.5C0.5 6.39449 1.90787 4.40578 4.35999 2.91699C6.80306 1.43369 10.2101 0.5 14 0.5C17.7899 0.5 21.1969 1.43369 23.64 2.91699C26.0921 4.40578 27.5 6.39449 27.5 8.5Z" stroke="black"/>
<rect x="5.5" y="17.5" width="15" height="26" stroke="black"/>
</svg>
