<svg width="44" height="44" viewBox="0 0 44 44" fill="none" xmlns="http://www.w3.org/2000/svg">
<line y1="-0.5" x2="12.4665" y2="-0.5" transform="matrix(0.260603 -0.926646 1.01361 0.1886 32.3804 26.2186)" stroke="black"/>
<path d="M40.01 2.66876L35.5208 22.5161L29.1081 19.8148L40.01 2.66876Z" fill="black"/>
<path d="M34.5822 8.39217C34.5822 9.89212 33.3079 11.3948 30.9127 12.5521C28.5525 13.6926 25.2567 14.4119 21.5892 14.4119C17.9217 14.4119 14.626 13.6926 12.2657 12.5521C9.87053 11.3948 8.59619 9.89212 8.59619 8.39217C8.59619 6.89223 9.87053 5.38957 12.2657 4.23222C14.626 3.09178 17.9217 2.37244 21.5892 2.37244C25.2567 2.37244 28.5525 3.09178 30.9127 4.23222C33.3079 5.38957 34.5822 6.89223 34.5822 8.39217Z" stroke="black"/>
<rect x="12.6436" y="15.4119" width="15.1916" height="11.0364" stroke="black"/>
<rect x="8.59619" y="27.4484" width="24.6367" height="10.0334" stroke="black"/>
<rect x="12.6436" y="38.4818" width="4.3972" height="5.01822" stroke="black"/>
<rect x="24.7876" y="38.4818" width="3.0479" height="5.01822" stroke="black"/>
<path d="M11.3684 15.54C11.4475 15.1593 11.5123 14.8377 11.5598 14.5974L6.21061 13.4173L0.53139 14.6132C0.547836 14.8064 0.571426 15.0586 0.604054 15.3575C0.68351 16.0853 0.816243 17.0864 1.02914 18.1801C1.46093 20.3984 2.20244 22.884 3.41591 24.3029C4.71652 25.8237 5.49901 26.641 5.95039 27.0744C6.02261 27.1437 6.08594 27.2028 6.14118 27.2531C6.30469 27.0565 6.52333 26.7954 6.77656 26.4978C7.33467 25.8418 8.06487 25.0033 8.74443 24.2844C8.85355 24.169 8.99922 23.9353 9.16873 23.5649C9.33319 23.2056 9.50302 22.7562 9.67372 22.244C10.0149 21.2202 10.3487 19.978 10.643 18.7705C10.9369 17.5647 11.1894 16.402 11.3684 15.54Z" stroke="black"/>
</svg>
