<svg width="44" height="44" viewBox="0 0 44 44" fill="#FF6666" xmlns="http://www.w3.org/2000/svg">
<path d="M35.3768 14.2451L35.5022 14.5145L35.7988 14.5331L41.8607 14.9125L35.6343 17.5627L35.0616 17.8064L35.423 18.3131L38.1437 22.1276L33.1673 20.6126L32.9294 20.5401L32.7281 20.6862L27.2219 24.6814L28.773 20.0215L28.9016 19.6349L28.549 19.4309L22.9336 16.1817L29.3838 15.3481L29.6379 15.3153L29.7597 15.0899L32.9884 9.11349L35.3768 14.2451Z" stroke="black"/>
<path d="M35.3768 29.2451L35.5022 29.5145L35.7988 29.5331L41.8607 29.9125L35.6343 32.5627L35.0616 32.8064L35.423 33.3131L38.1437 37.1276L33.1673 35.6126L32.9294 35.5401L32.7281 35.6862L27.2219 39.6814L28.773 35.0215L28.9016 34.6349L28.549 34.4309L22.9336 31.1817L29.3838 30.3481L29.6379 30.3153L29.7597 30.0899L32.9884 24.1135L35.3768 29.2451Z" stroke="black"/>
<path d="M28.5 8.5C28.5 10.5968 27.0467 12.5863 24.5002 14.0791C21.9655 15.5649 18.431 16.5 14.5 16.5C10.569 16.5 7.0345 15.5649 4.49981 14.0791C1.95328 12.5863 0.5 10.5968 0.5 8.5C0.5 6.40322 1.95328 4.41374 4.49981 2.92094C7.0345 1.43509 10.569 0.5 14.5 0.5C18.431 0.5 21.9655 1.43509 24.5002 2.92094C27.0467 4.41374 28.5 6.40322 28.5 8.5Z" stroke="black"/>
<rect x="5.5" y="17.5" width="15" height="26" stroke="black"/>
</svg>
