<svg width="44" height="44" viewBox="0 0 44 44" fill="none" xmlns="http://www.w3.org/2000/svg">
<path d="M35.8791 25.287C38.137 25.6323 41.3255 26.7572 43.3924 30.151C43.3962 30.6675 43.4202 31.1698 43.444 31.6464C43.4453 31.6722 43.4465 31.6979 43.4478 31.7235C43.4726 32.2183 43.4957 32.6818 43.4971 33.1226C43.5001 34.0561 43.4028 34.8113 43.0687 35.4196C42.7458 36.0076 42.1639 36.5241 41.0527 36.8985C39.9275 37.2776 38.2877 37.5001 35.9044 37.5001C33.6178 37.5001 31.9338 36.6612 30.8135 35.3373C29.7138 34.0377 29.1221 32.2279 29.0916 30.1791C30.8066 27.9379 31.7301 26.8634 32.5985 26.2663C33.4403 25.6874 34.2473 25.544 35.8791 25.287Z" stroke="black"/>
<path d="M34.4258 24.9597L30.5405 21H41.1123L38.4694 23.4265L36.9936 24.9597" stroke="black"/>
<line x1="33.2598" y1="24.6383" x2="37.9285" y2="24.6383" stroke="black"/>
<path d="M31.9176 8.5C31.9176 10.5972 30.4667 12.5867 27.9251 14.0793C25.3953 15.565 21.8675 16.5 17.9439 16.5C14.0203 16.5 10.4925 15.565 7.96266 14.0793C5.4211 12.5867 3.97021 10.5972 3.97021 8.5C3.97021 6.40276 5.4211 4.41333 7.96266 2.92074C10.4925 1.43502 14.0203 0.5 17.9439 0.5C21.8675 0.5 25.3953 1.43502 27.9251 2.92074C30.4667 4.41333 31.9176 6.40276 31.9176 8.5Z" stroke="black"/>
<rect x="9.75928" y="17.5" width="17.5263" height="26" stroke="black"/>
<path d="M7.81592 33.7935L5.23417 28.5273L1.15239 20.8656" stroke="black"/>
<path d="M3.82899 33.8568L8.42245 27.1666" stroke="black"/>
</svg>
