<svg width="1219" height="968" viewBox="0 0 1219 968" fill="none" xmlns="http://www.w3.org/2000/svg">
<path d="M25.5195 436.385C19.0938 399.715 -17.7557 345.614 16.1467 311.576C43.3706 284.244 75.4782 266.899 106.577 244.715C141.565 219.755 141.009 185.019 129.314 147.476C125.31 134.624 121.967 113.233 127.405 100.59C137.298 77.5887 166.708 62.9427 188.154 51.7235C215.476 37.4309 246.113 41.1577 276.154 41.1577C321.022 41.1577 366.528 29.087 411.539 26.1344C447.697 23.7626 485.05 11.9517 519.499 29.2711C551.879 45.5498 571.42 85.0456 591.01 112.477C596.223 119.777 606.049 125.343 609.061 133.939C612.271 143.098 609.756 156.665 609.756 165.966C609.756 182.878 612.968 199.116 615.31 215.824C615.777 219.158 619.809 229.82 618.955 232.663C609.716 263.42 606.055 302.389 629.89 330.727C654.033 359.431 695.395 366.027 707.996 403.697C728.561 465.172 716.177 542.439 704.178 603.787C701.55 617.221 695.248 620.626 679.531 620.626C651.158 620.626 618.323 625.077 591.01 617.655C565.32 610.673 540.782 598.131 520.888 581.335C499.127 562.963 479.245 541.669 457.014 524.048C439.636 510.274 419.312 495.031 398.521 486.243C391.102 483.106 387.837 491.098 384.115 495.818C355.162 532.535 312.521 554.456 283.271 590.745C231.252 655.281 113.915 671.073 62.3163 595.863C46.86 573.334 41.586 544.046 52.0756 518.105C57.146 505.566 58.9099 486.548 48.9514 475.181C42.7132 468.061 34.4992 462.56 29.338 454.215C25.9107 448.673 27.3625 435.776 22.3952 433.413" stroke="black" stroke-width="3" stroke-linecap="round"/>
<path d="M825.68 110.067C800.503 144.982 813.203 185.426 813.203 225.664C813.203 229.315 811.042 240.189 816.322 240.484C825.571 241.001 835.599 241.133 844.569 239.002C878.28 230.994 913.031 227.821 946.637 220.395C971.269 214.951 987.88 216.667 1009.71 231.757C1039.91 252.623 1033.22 274.963 1019.07 305.693C1012.09 320.865 1003 365.069 1027.74 373.207C1045.74 379.128 1073.44 373.866 1092.55 373.866C1110.56 373.866 1116.98 387.434 1128.25 397.578C1148.23 415.569 1176.22 401.689 1191.32 384.405C1230.18 339.929 1219.89 274.042 1193.75 225.664C1179.64 199.557 1155.36 178.143 1145.4 149.752C1140.8 136.637 1139.74 122.226 1131.37 110.725C1125.44 102.588 1114.52 99.99 1108.14 92.2823C1090.37 70.7827 1076.51 44.3943 1054.08 27.0735C1007.4 -8.96229 951.729 -4.54924 905.22 30.0376C876.734 51.2223 845.99 81.8992 825.68 110.067Z" stroke="black" stroke-width="3" stroke-linecap="round"/>
<path d="M912.407 478C912.407 501.623 916.661 529.219 904.079 550.754C887.549 579.047 859.542 609.575 832.771 629.283C812.82 643.97 792.572 658.122 773.608 673.991C759.432 685.853 747.375 698.778 729.192 705.336C683.975 721.645 643.218 712.386 596.812 709.791C589.378 709.375 564.168 705.526 558.122 711.276C550 718.998 556.387 752.848 556.387 762.583C556.387 788.757 550.117 814.333 581.37 823.789C608.527 832.005 637.511 830.519 665.518 831.543C693.593 832.57 721.334 834.347 749.491 834.347C771.988 834.347 794.485 834.347 816.982 834.347C823.81 834.347 827.89 846.459 833.118 850.845C848.523 863.77 868.728 870.966 887.25 878.891C917.549 891.856 937.156 918.662 964.804 935.313C994.666 953.296 1057.28 976.598 1092.15 960.719C1117.58 949.139 1124.32 917.592 1130.32 894.399C1138.19 863.974 1156 833.408 1156 802.012C1156 750.647 1154.74 696.183 1140.04 646.275C1132.6 621.038 1123.69 597.01 1120.26 570.881C1119.62 566.015 1120.76 550.357 1115.4 546.96C1111.25 544.33 1100.59 545.372 1095.97 544.32C1081.02 540.92 1066.61 534.394 1052.94 527.823C1039.94 521.571 1027.95 513.467 1014.42 508.191C1010.87 506.804 1000.22 506.463 997.422 504.066C991.367 498.884 1000.51 495.817 987.359 495.817C981.158 495.817 974.814 496.164 968.621 495.817C964.243 495.573 961.272 490.15 956.129 489.878C949.925 489.551 943.603 489.878 937.391 489.878C930.799 489.878 914.95 485.805 912.407 480.97" stroke="black" stroke-width="3" stroke-linecap="round"/>
</svg>
