<svg width="13" height="14" viewBox="0 0 13 14" fill="none" xmlns="http://www.w3.org/2000/svg">
<path d="M6.97986 4.33674L7.10313 4.97596L7.56835 4.52059L9.33038 2.79589L8.33318 5.1779L8.1016 5.73107L8.69714 5.66063L11.1453 5.37106L8.98163 6.70188L8.49694 7L8.98163 7.29812L11.1453 8.62894L8.69714 8.33937L8.1016 8.26893L8.33318 8.8221L9.33038 11.2041L7.56835 9.47941L7.10313 9.02404L6.97986 9.66326L6.5 12.1516L6.02014 9.66326L5.89687 9.02404L5.43165 9.47941L3.66963 11.2041L4.66682 8.8221L4.8984 8.26893L4.30286 8.33937L1.85469 8.62894L4.01837 7.29812L4.50306 7L4.01837 6.70188L1.85469 5.37106L4.30286 5.66063L4.8984 5.73107L4.66682 5.1779L3.66963 2.79589L5.43165 4.52059L5.89687 4.97596L6.02014 4.33674L6.5 1.84839L6.97986 4.33674Z" fill="#ED9544" stroke="#E85555" stroke-width="0.7"/>
</svg>
